<svg width="27" height="27" viewBox="0 0 27 27" fill="none" xmlns="http://www.w3.org/2000/svg">
<path d="M14.5048 3.81009L16.1631 7.21879C16.3902 7.68665 16.9975 8.15163 17.5125 8.23716L20.5757 8.78636C22.5372 9.13372 22.9729 10.5615 21.5523 11.9587L19.1329 14.325C18.729 14.7217 18.4889 15.5061 18.6139 16.0597L19.2625 19.0289C19.7723 21.3729 18.5224 22.2679 16.4736 21.0223L13.6115 19.282C13.0903 18.9639 12.2361 18.9615 11.7151 19.2606L8.81633 20.9284C6.74131 22.1203 5.50892 21.1995 6.07262 18.8696L6.79264 15.9214C6.9271 15.3703 6.71537 14.5803 6.31875 14.1763L3.93899 11.7525C2.55072 10.3275 3.01849 8.9107 4.98397 8.60508L8.05281 8.13008C8.57095 8.04565 9.18927 7.60715 9.42275 7.14026L11.1592 3.76393C12.1069 1.94547 13.6098 1.96537 14.5048 3.81009Z" fill="black"/>
</svg>
