<svg width="52" height="52" viewBox="0 0 52 52" fill="none" xmlns="http://www.w3.org/2000/svg">
<rect opacity="0.6" x="0.5" y="0.5" width="51" height="51" rx="9.5" fill="white" stroke="black"/>
<g opacity="0.6">
<path d="M26 20.4399V23.7699" stroke="black" stroke-width="1.5" stroke-miterlimit="10" stroke-linecap="round"/>
<path d="M26.0199 16C22.3399 16 19.3599 18.98 19.3599 22.66V24.76C19.3599 25.44 19.0799 26.46 18.7299 27.04L17.4599 29.16C16.6799 30.47 17.2199 31.93 18.6599 32.41C23.4399 34 28.6099 34 33.3899 32.41C34.7399 31.96 35.3199 30.38 34.5899 29.16L33.3199 27.04C32.9699 26.46 32.6899 25.43 32.6899 24.76V22.66C32.6799 19 29.6799 16 26.0199 16Z" stroke="black" stroke-width="1.5" stroke-miterlimit="10" stroke-linecap="round"/>
<path d="M29.3299 32.8198C29.3299 34.6498 27.8299 36.1498 25.9999 36.1498C25.0899 36.1498 24.2499 35.7698 23.6499 35.1698C23.0499 34.5698 22.6699 33.7298 22.6699 32.8198" stroke="black" stroke-width="1.5" stroke-miterlimit="10"/>
</g>
</svg>
