<svg width="83" height="16" viewBox="0 0 83 16" fill="none" xmlns="http://www.w3.org/2000/svg">
<g clip-path="url(#clip0_30_5671)">
<g clip-path="url(#clip1_30_5671)">
<path d="M15.8333 13.8334H1.5V0.833415C1.5 0.741748 1.425 0.666748 1.33333 0.666748H0.166667C0.075 0.666748 0 0.741748 0 0.833415V15.1667C0 15.2584 0.075 15.3334 0.166667 15.3334H15.8333C15.925 15.3334 16 15.2584 16 15.1667V14.0001C16 13.9084 15.925 13.8334 15.8333 13.8334ZM3 12.5001H14.1667C14.2583 12.5001 14.3333 12.4251 14.3333 12.3334V3.25008C14.3333 3.10008 14.1521 3.02716 14.0479 3.13133L9.66667 7.51258L7.05417 4.92925C7.02284 4.89823 6.98054 4.88083 6.93646 4.88083C6.89238 4.88083 6.85007 4.89823 6.81875 4.92925L2.88125 8.87925C2.86596 8.89457 2.85385 8.91277 2.84562 8.93279C2.8374 8.95282 2.83322 8.97427 2.83333 8.99591V12.3334C2.83333 12.4251 2.90833 12.5001 3 12.5001Z" fill="#40BB15"/>
</g>
<path d="M22.416 12V3.6H29.484V12H28.608V4.128L28.836 4.368H23.064L23.292 4.128V12H22.416ZM35.5663 12.06C35.0223 12.06 34.5303 11.936 34.0903 11.688C33.6503 11.432 33.2983 11.068 33.0343 10.596C32.7783 10.116 32.6503 9.532 32.6503 8.844C32.6503 8.156 32.7783 7.576 33.0343 7.104C33.2903 6.624 33.6383 6.26 34.0783 6.012C34.5183 5.764 35.0143 5.64 35.5663 5.64C36.1663 5.64 36.7023 5.776 37.1743 6.048C37.6543 6.312 38.0303 6.688 38.3023 7.176C38.5743 7.656 38.7103 8.212 38.7103 8.844C38.7103 9.484 38.5743 10.044 38.3023 10.524C38.0303 11.004 37.6543 11.38 37.1743 11.652C36.7023 11.924 36.1663 12.06 35.5663 12.06ZM32.3143 14.328V5.7H33.1303V7.596L33.0463 8.856L33.1663 10.128V14.328H32.3143ZM35.5063 11.304C35.9543 11.304 36.3543 11.204 36.7063 11.004C37.0583 10.796 37.3383 10.508 37.5463 10.14C37.7543 9.764 37.8583 9.332 37.8583 8.844C37.8583 8.356 37.7543 7.928 37.5463 7.56C37.3383 7.192 37.0583 6.904 36.7063 6.696C36.3543 6.488 35.9543 6.384 35.5063 6.384C35.0583 6.384 34.6543 6.488 34.2943 6.696C33.9423 6.904 33.6623 7.192 33.4543 7.56C33.2543 7.928 33.1543 8.356 33.1543 8.844C33.1543 9.332 33.2543 9.764 33.4543 10.14C33.6623 10.508 33.9423 10.796 34.2943 11.004C34.6543 11.204 35.0583 11.304 35.5063 11.304ZM43.3329 12.06C42.7249 12.06 42.1769 11.924 41.6889 11.652C41.2089 11.372 40.8289 10.992 40.5489 10.512C40.2689 10.024 40.1289 9.468 40.1289 8.844C40.1289 8.212 40.2689 7.656 40.5489 7.176C40.8289 6.696 41.2089 6.32 41.6889 6.048C42.1689 5.776 42.7169 5.64 43.3329 5.64C43.9569 5.64 44.5089 5.776 44.9889 6.048C45.4769 6.32 45.8569 6.696 46.1289 7.176C46.4089 7.656 46.5489 8.212 46.5489 8.844C46.5489 9.468 46.4089 10.024 46.1289 10.512C45.8569 10.992 45.4769 11.372 44.9889 11.652C44.5009 11.924 43.9489 12.06 43.3329 12.06ZM43.3329 11.304C43.7889 11.304 44.1929 11.204 44.5449 11.004C44.8969 10.796 45.1729 10.508 45.3729 10.14C45.5809 9.764 45.6849 9.332 45.6849 8.844C45.6849 8.348 45.5809 7.916 45.3729 7.548C45.1729 7.18 44.8969 6.896 44.5449 6.696C44.1929 6.488 43.7929 6.384 43.3449 6.384C42.8969 6.384 42.4969 6.488 42.1449 6.696C41.7929 6.896 41.5129 7.18 41.3049 7.548C41.0969 7.916 40.9929 8.348 40.9929 8.844C40.9929 9.332 41.0969 9.764 41.3049 10.14C41.5129 10.508 41.7929 10.796 42.1449 11.004C42.4969 11.204 42.8929 11.304 43.3329 11.304ZM48.5698 12V5.7H53.0338V6.444H49.2058L49.4218 6.228V12H48.5698ZM57.7171 12.06C57.1731 12.06 56.6811 11.936 56.2411 11.688C55.8011 11.432 55.4491 11.068 55.1851 10.596C54.9291 10.116 54.8011 9.532 54.8011 8.844C54.8011 8.156 54.9291 7.576 55.1851 7.104C55.4411 6.624 55.7891 6.26 56.2291 6.012C56.6691 5.764 57.1651 5.64 57.7171 5.64C58.3171 5.64 58.8531 5.776 59.3251 6.048C59.8051 6.312 60.1811 6.688 60.4531 7.176C60.7251 7.656 60.8611 8.212 60.8611 8.844C60.8611 9.484 60.7251 10.044 60.4531 10.524C60.1811 11.004 59.8051 11.38 59.3251 11.652C58.8531 11.924 58.3171 12.06 57.7171 12.06ZM54.4651 14.328V5.7H55.2811V7.596L55.1971 8.856L55.3171 10.128V14.328H54.4651ZM57.6571 11.304C58.1051 11.304 58.5051 11.204 58.8571 11.004C59.2091 10.796 59.4891 10.508 59.6971 10.14C59.9051 9.764 60.0091 9.332 60.0091 8.844C60.0091 8.356 59.9051 7.928 59.6971 7.56C59.4891 7.192 59.2091 6.904 58.8571 6.696C58.5051 6.488 58.1051 6.384 57.6571 6.384C57.2091 6.384 56.8051 6.488 56.4451 6.696C56.0931 6.904 55.8131 7.192 55.6051 7.56C55.4051 7.928 55.3051 8.356 55.3051 8.844C55.3051 9.332 55.4051 9.764 55.6051 10.14C55.8131 10.508 56.0931 10.796 56.4451 11.004C56.8051 11.204 57.2091 11.304 57.6571 11.304ZM65.5917 12.06C64.9357 12.06 64.3597 11.924 63.8637 11.652C63.3677 11.372 62.9797 10.992 62.6997 10.512C62.4197 10.024 62.2797 9.468 62.2797 8.844C62.2797 8.22 62.4117 7.668 62.6757 7.188C62.9477 6.708 63.3157 6.332 63.7797 6.06C64.2517 5.78 64.7797 5.64 65.3637 5.64C65.9557 5.64 66.4797 5.776 66.9357 6.048C67.3997 6.312 67.7637 6.688 68.0277 7.176C68.2917 7.656 68.4237 8.212 68.4237 8.844C68.4237 8.884 68.4197 8.928 68.4117 8.976C68.4117 9.016 68.4117 9.06 68.4117 9.108H62.9277V8.472H67.9557L67.6197 8.724C67.6197 8.268 67.5197 7.864 67.3197 7.512C67.1277 7.152 66.8637 6.872 66.5277 6.672C66.1917 6.472 65.8037 6.372 65.3637 6.372C64.9317 6.372 64.5437 6.472 64.1997 6.672C63.8557 6.872 63.5877 7.152 63.3957 7.512C63.2037 7.872 63.1077 8.284 63.1077 8.748V8.88C63.1077 9.36 63.2117 9.784 63.4197 10.152C63.6357 10.512 63.9317 10.796 64.3077 11.004C64.6917 11.204 65.1277 11.304 65.6157 11.304C65.9997 11.304 66.3557 11.236 66.6837 11.1C67.0197 10.964 67.3077 10.756 67.5477 10.476L68.0277 11.028C67.7477 11.364 67.3957 11.62 66.9717 11.796C66.5557 11.972 66.0957 12.06 65.5917 12.06ZM73.1497 12.06C72.5257 12.06 71.9657 11.924 71.4697 11.652C70.9817 11.372 70.5977 10.992 70.3177 10.512C70.0377 10.024 69.8977 9.468 69.8977 8.844C69.8977 8.212 70.0377 7.656 70.3177 7.176C70.5977 6.696 70.9817 6.32 71.4697 6.048C71.9657 5.776 72.5257 5.64 73.1497 5.64C73.6857 5.64 74.1697 5.744 74.6017 5.952C75.0337 6.16 75.3737 6.472 75.6217 6.888L74.9857 7.32C74.7697 7 74.5017 6.764 74.1817 6.612C73.8617 6.46 73.5137 6.384 73.1377 6.384C72.6897 6.384 72.2857 6.488 71.9257 6.696C71.5657 6.896 71.2817 7.18 71.0737 7.548C70.8657 7.916 70.7617 8.348 70.7617 8.844C70.7617 9.34 70.8657 9.772 71.0737 10.14C71.2817 10.508 71.5657 10.796 71.9257 11.004C72.2857 11.204 72.6897 11.304 73.1377 11.304C73.5137 11.304 73.8617 11.228 74.1817 11.076C74.5017 10.924 74.7697 10.692 74.9857 10.38L75.6217 10.812C75.3737 11.22 75.0337 11.532 74.6017 11.748C74.1697 11.956 73.6857 12.06 73.1497 12.06ZM80.0059 12.06C79.3819 12.06 78.8219 11.924 78.3259 11.652C77.8379 11.372 77.4539 10.992 77.1739 10.512C76.8939 10.024 76.7539 9.468 76.7539 8.844C76.7539 8.212 76.8939 7.656 77.1739 7.176C77.4539 6.696 77.8379 6.32 78.3259 6.048C78.8219 5.776 79.3819 5.64 80.0059 5.64C80.5419 5.64 81.0259 5.744 81.4579 5.952C81.8899 6.16 82.2299 6.472 82.4779 6.888L81.8419 7.32C81.6259 7 81.3579 6.764 81.0379 6.612C80.7179 6.46 80.3699 6.384 79.9939 6.384C79.5459 6.384 79.1419 6.488 78.7819 6.696C78.4219 6.896 78.1379 7.18 77.9299 7.548C77.7219 7.916 77.6179 8.348 77.6179 8.844C77.6179 9.34 77.7219 9.772 77.9299 10.14C78.1379 10.508 78.4219 10.796 78.7819 11.004C79.1419 11.204 79.5459 11.304 79.9939 11.304C80.3699 11.304 80.7179 11.228 81.0379 11.076C81.3579 10.924 81.6259 10.692 81.8419 10.38L82.4779 10.812C82.2299 11.22 81.8899 11.532 81.4579 11.748C81.0259 11.956 80.5419 12.06 80.0059 12.06Z" fill="#737373"/>
</g>
<defs>
<clipPath id="clip0_30_5671">
<rect width="83" height="16" fill="white"/>
</clipPath>
<clipPath id="clip1_30_5671">
<rect width="16" height="14.6667" fill="white" transform="translate(0 0.666748)"/>
</clipPath>
</defs>
</svg>
