<svg width="88" height="16" viewBox="0 0 88 16" fill="none" xmlns="http://www.w3.org/2000/svg">
<g clip-path="url(#clip0_30_5662)">
<g clip-path="url(#clip1_30_5662)">
<path d="M7.99934 14.6667C4.70379 14.6232 2.04278 11.9622 1.99934 8.66668C2.04278 5.37113 4.70379 2.71011 7.99934 2.66668C11.2949 2.71011 13.9559 5.37113 13.9993 8.66668C13.9559 11.9622 11.2949 14.6232 7.99934 14.6667ZM7.99934 4.00001C5.43612 4.03376 3.36642 6.10346 3.33268 8.66668C3.36642 11.2299 5.43612 13.2996 7.99934 13.3333C10.5626 13.2996 12.6323 11.2299 12.666 8.66668C12.6323 6.10346 10.5626 4.03376 7.99934 4.00001ZM11.3327 9.33334H7.33268V5.33334H8.66601V8.00001H11.3327V9.33334ZM13.5273 4.47201L11.5213 2.47201L12.4607 1.52734L14.4673 3.52734L13.5273 4.47134V4.47201ZM2.47068 4.47201L1.52734 3.52734L3.52134 1.52734L4.46468 2.47201L2.47201 4.47201H2.47068Z" fill="#23A6F0"/>
</g>
<path d="M21.468 12V11.388L24.96 7.968C25.28 7.656 25.52 7.384 25.68 7.152C25.84 6.912 25.948 6.688 26.004 6.48C26.06 6.272 26.088 6.076 26.088 5.892C26.088 5.404 25.92 5.02 25.584 4.74C25.256 4.46 24.768 4.32 24.12 4.32C23.624 4.32 23.184 4.396 22.8 4.548C22.424 4.7 22.1 4.936 21.828 5.256L21.216 4.728C21.544 4.344 21.964 4.048 22.476 3.84C22.988 3.632 23.56 3.528 24.192 3.528C24.76 3.528 25.252 3.62 25.668 3.804C26.084 3.98 26.404 4.24 26.628 4.584C26.86 4.928 26.976 5.332 26.976 5.796C26.976 6.068 26.936 6.336 26.856 6.6C26.784 6.864 26.648 7.144 26.448 7.44C26.256 7.728 25.972 8.056 25.596 8.424L22.392 11.568L22.152 11.232H27.36V12H21.468ZM28.4883 12V11.388L31.9803 7.968C32.3003 7.656 32.5403 7.384 32.7003 7.152C32.8603 6.912 32.9683 6.688 33.0243 6.48C33.0803 6.272 33.1083 6.076 33.1083 5.892C33.1083 5.404 32.9403 5.02 32.6043 4.74C32.2763 4.46 31.7883 4.32 31.1403 4.32C30.6443 4.32 30.2043 4.396 29.8203 4.548C29.4443 4.7 29.1203 4.936 28.8483 5.256L28.2363 4.728C28.5643 4.344 28.9843 4.048 29.4963 3.84C30.0083 3.632 30.5803 3.528 31.2123 3.528C31.7803 3.528 32.2723 3.62 32.6883 3.804C33.1043 3.98 33.4243 4.24 33.6483 4.584C33.8803 4.928 33.9963 5.332 33.9963 5.796C33.9963 6.068 33.9563 6.336 33.8763 6.6C33.8043 6.864 33.6683 7.144 33.4683 7.44C33.2763 7.728 32.9923 8.056 32.6163 8.424L29.4123 11.568L29.1723 11.232H34.3803V12H28.4883ZM40.2132 9.336C39.8452 9.496 39.4732 9.624 39.0972 9.72C38.7292 9.808 38.3612 9.852 37.9932 9.852C37.2492 9.852 36.6612 9.684 36.2292 9.348C35.7972 9.004 35.5812 8.476 35.5812 7.764V5.7H36.4212V7.716C36.4212 8.196 36.5772 8.556 36.8892 8.796C37.2012 9.036 37.6212 9.156 38.1492 9.156C38.4692 9.156 38.8052 9.116 39.1572 9.036C39.5092 8.948 39.8652 8.824 40.2252 8.664L40.2132 9.336ZM40.1412 12V5.7H40.9932V12H40.1412ZM48.8734 12.072C48.2654 12.072 47.6894 11.976 47.1454 11.784C46.6094 11.584 46.1774 11.32 45.8494 10.992L46.2694 10.308C46.5414 10.588 46.9054 10.82 47.3614 11.004C47.8254 11.188 48.3294 11.28 48.8734 11.28C49.5694 11.28 50.1014 11.128 50.4694 10.824C50.8454 10.52 51.0334 10.112 51.0334 9.6C51.0334 9.088 50.8494 8.68 50.4814 8.376C50.1214 8.072 49.5494 7.92 48.7654 7.92H48.1654V7.284L50.7574 4.032L50.8774 4.368H46.1974V3.6H51.5974V4.212L49.0054 7.464L48.5854 7.188H48.9094C49.9174 7.188 50.6694 7.412 51.1654 7.86C51.6694 8.308 51.9214 8.884 51.9214 9.588C51.9214 10.06 51.8094 10.484 51.5854 10.86C51.3614 11.236 51.0214 11.532 50.5654 11.748C50.1174 11.964 49.5534 12.072 48.8734 12.072ZM56.6868 12.072C56.0388 12.072 55.4628 11.904 54.9588 11.568C54.4548 11.224 54.0588 10.736 53.7708 10.104C53.4828 9.464 53.3388 8.696 53.3388 7.8C53.3388 6.904 53.4828 6.14 53.7708 5.508C54.0588 4.868 54.4548 4.38 54.9588 4.044C55.4628 3.7 56.0388 3.528 56.6868 3.528C57.3348 3.528 57.9108 3.7 58.4148 4.044C58.9188 4.38 59.3148 4.868 59.6028 5.508C59.8988 6.14 60.0468 6.904 60.0468 7.8C60.0468 8.696 59.8988 9.464 59.6028 10.104C59.3148 10.736 58.9188 11.224 58.4148 11.568C57.9108 11.904 57.3348 12.072 56.6868 12.072ZM56.6868 11.28C57.1828 11.28 57.6148 11.148 57.9828 10.884C58.3508 10.612 58.6388 10.22 58.8468 9.708C59.0548 9.188 59.1588 8.552 59.1588 7.8C59.1588 7.048 59.0548 6.416 58.8468 5.904C58.6388 5.384 58.3508 4.992 57.9828 4.728C57.6148 4.456 57.1828 4.32 56.6868 4.32C56.2068 4.32 55.7788 4.456 55.4028 4.728C55.0268 4.992 54.7348 5.384 54.5268 5.904C54.3188 6.416 54.2148 7.048 54.2148 7.8C54.2148 8.552 54.3188 9.188 54.5268 9.708C54.7348 10.22 55.0268 10.612 55.4028 10.884C55.7788 11.148 56.2068 11.28 56.6868 11.28ZM62.0722 12V5.7H62.9362L65.7922 10.536H65.4322L68.3362 5.7H69.1282V12H68.3482V6.672L68.5042 6.744L65.7922 11.232H65.4082L62.6722 6.696L62.8522 6.66V12H62.0722ZM71.7526 12V5.7H72.6046V10.704L76.8166 5.7H77.5726V12H76.7206V6.984L72.5206 12H71.7526ZM80.2143 12V5.7H81.0663V8.484H85.0383V5.7H85.8903V12H85.0383V9.216H81.0663V12H80.2143Z" fill="#737373"/>
</g>
<defs>
<clipPath id="clip0_30_5662">
<rect width="88" height="16" fill="white"/>
</clipPath>
<clipPath id="clip1_30_5662">
<rect width="16" height="16" fill="white"/>
</clipPath>
</defs>
</svg>
