<svg width="86" height="16" viewBox="0 0 86 16" fill="none" xmlns="http://www.w3.org/2000/svg">
<g clip-path="url(#clip0_30_5667)">
<path d="M15 3.307L14.3425 3.5255C13.4214 3.81404 12.4649 3.97373 11.5 4C10.633 4 9.839 3.5465 8.998 3.066C8.081 2.542 7.133 2 6 2C4.5615 2 2.9575 3.103 2 3.886V1H1V14C1.00026 14.2651 1.10571 14.5193 1.29319 14.7068C1.48066 14.8943 1.73486 14.9997 2 15H15V3.307ZM2 10.147C2.937 8.688 4.78 6.5 6 6.5C6.819 6.5 7.48 7.051 8.18 7.6345C8.9485 8.2745 9.819 9 11 9C12.118 8.94638 13.1809 8.49837 14 7.7355V10.2135C13.0781 10.7138 12.0488 10.9837 11 11C10.1978 10.9786 9.40531 10.8181 8.658 10.5255C7.80921 10.1974 6.90978 10.0196 6 10C4.5365 10 2.966 11.4795 2 12.579V10.147ZM6 3C6.867 3 7.661 3.4535 8.502 3.934C9.419 4.458 10.367 5 11.5 5C12.3438 4.98583 13.1829 4.87204 14 4.661V6.3215C13.6585 6.723 12.458 8 11 8C10.181 8 9.52 7.449 8.82 6.8655C8.0515 6.2255 7.181 5.5 6 5.5C4.532 5.5 2.9685 7.17 2 8.4225V5.212C2.773 4.483 4.6295 3 6 3ZM2.1245 14C2.931 12.9545 4.705 11 6 11C6.80225 11.0214 7.59469 11.1819 8.342 11.4745C9.19079 11.8026 10.0902 11.9804 11 12C12.036 11.9901 13.0582 11.7618 14 11.33V14H2.1245Z" fill="#E77C40"/>
<path d="M25.068 12.072C24.324 12.072 23.696 11.908 23.184 11.58C22.672 11.244 22.284 10.764 22.02 10.14C21.756 9.508 21.624 8.752 21.624 7.872C21.624 6.92 21.784 6.124 22.104 5.484C22.432 4.836 22.884 4.348 23.46 4.02C24.036 3.692 24.704 3.528 25.464 3.528C25.84 3.528 26.2 3.564 26.544 3.636C26.888 3.708 27.192 3.824 27.456 3.984L27.108 4.68C26.892 4.536 26.644 4.436 26.364 4.38C26.084 4.316 25.788 4.284 25.476 4.284C24.572 4.284 23.848 4.572 23.304 5.148C22.768 5.724 22.5 6.584 22.5 7.728C22.5 7.904 22.508 8.124 22.524 8.388C22.548 8.644 22.596 8.9 22.668 9.156L22.368 8.928C22.456 8.512 22.628 8.16 22.884 7.872C23.14 7.576 23.46 7.352 23.844 7.2C24.228 7.048 24.648 6.972 25.104 6.972C25.664 6.972 26.156 7.076 26.58 7.284C27.004 7.492 27.336 7.784 27.576 8.16C27.816 8.536 27.936 8.98 27.936 9.492C27.936 10.012 27.812 10.468 27.564 10.86C27.316 11.244 26.972 11.544 26.532 11.76C26.1 11.968 25.612 12.072 25.068 12.072ZM25.032 11.34C25.432 11.34 25.784 11.268 26.088 11.124C26.4 10.972 26.644 10.76 26.82 10.488C26.996 10.208 27.084 9.884 27.084 9.516C27.084 8.964 26.892 8.524 26.508 8.196C26.132 7.868 25.62 7.704 24.972 7.704C24.54 7.704 24.164 7.784 23.844 7.944C23.524 8.104 23.272 8.324 23.088 8.604C22.904 8.876 22.812 9.188 22.812 9.54C22.812 9.844 22.896 10.136 23.064 10.416C23.232 10.688 23.48 10.912 23.808 11.088C24.144 11.256 24.552 11.34 25.032 11.34ZM28.9925 9.792V9.168L33.4445 3.6H34.4045L29.9885 9.168L29.5205 9.024H36.2765V9.792H28.9925ZM33.7325 12V9.792L33.7565 9.024V7.08H34.5965V12H33.7325ZM41.3067 14.388C41.0107 14.388 40.7267 14.34 40.4547 14.244C40.1907 14.148 39.9627 14.004 39.7707 13.812L40.1667 13.176C40.3267 13.328 40.4987 13.444 40.6827 13.524C40.8747 13.612 41.0867 13.656 41.3187 13.656C41.5987 13.656 41.8387 13.576 42.0387 13.416C42.2467 13.264 42.4427 12.992 42.6267 12.6L43.0347 11.676L43.1307 11.544L45.7227 5.7H46.5627L43.4067 12.756C43.2307 13.164 43.0347 13.488 42.8187 13.728C42.6107 13.968 42.3827 14.136 42.1347 14.232C41.8867 14.336 41.6107 14.388 41.3067 14.388ZM42.9867 12.18L40.0827 5.7H40.9707L43.5387 11.484L42.9867 12.18ZM51.3421 12.06C50.7981 12.06 50.3061 11.936 49.8661 11.688C49.4261 11.432 49.0741 11.068 48.8101 10.596C48.5541 10.116 48.4261 9.532 48.4261 8.844C48.4261 8.156 48.5541 7.576 48.8101 7.104C49.0661 6.624 49.4141 6.26 49.8541 6.012C50.2941 5.764 50.7901 5.64 51.3421 5.64C51.9421 5.64 52.4781 5.776 52.9501 6.048C53.4301 6.312 53.8061 6.688 54.0781 7.176C54.3501 7.656 54.4861 8.212 54.4861 8.844C54.4861 9.484 54.3501 10.044 54.0781 10.524C53.8061 11.004 53.4301 11.38 52.9501 11.652C52.4781 11.924 51.9421 12.06 51.3421 12.06ZM48.0901 14.328V5.7H48.9061V7.596L48.8221 8.856L48.9421 10.128V14.328H48.0901ZM51.2821 11.304C51.7301 11.304 52.1301 11.204 52.4821 11.004C52.8341 10.796 53.1141 10.508 53.3221 10.14C53.5301 9.764 53.6341 9.332 53.6341 8.844C53.6341 8.356 53.5301 7.928 53.3221 7.56C53.1141 7.192 52.8341 6.904 52.4821 6.696C52.1301 6.488 51.7301 6.384 51.2821 6.384C50.8341 6.384 50.4301 6.488 50.0701 6.696C49.7181 6.904 49.4381 7.192 49.2301 7.56C49.0301 7.928 48.9301 8.356 48.9301 8.844C48.9301 9.332 49.0301 9.764 49.2301 10.14C49.4381 10.508 49.7181 10.796 50.0701 11.004C50.4301 11.204 50.8341 11.304 51.2821 11.304ZM59.1087 12.06C58.5007 12.06 57.9527 11.924 57.4647 11.652C56.9847 11.372 56.6047 10.992 56.3247 10.512C56.0447 10.024 55.9047 9.468 55.9047 8.844C55.9047 8.212 56.0447 7.656 56.3247 7.176C56.6047 6.696 56.9847 6.32 57.4647 6.048C57.9447 5.776 58.4927 5.64 59.1087 5.64C59.7327 5.64 60.2847 5.776 60.7647 6.048C61.2527 6.32 61.6327 6.696 61.9047 7.176C62.1847 7.656 62.3247 8.212 62.3247 8.844C62.3247 9.468 62.1847 10.024 61.9047 10.512C61.6327 10.992 61.2527 11.372 60.7647 11.652C60.2767 11.924 59.7247 12.06 59.1087 12.06ZM59.1087 11.304C59.5647 11.304 59.9687 11.204 60.3207 11.004C60.6727 10.796 60.9487 10.508 61.1487 10.14C61.3567 9.764 61.4607 9.332 61.4607 8.844C61.4607 8.348 61.3567 7.916 61.1487 7.548C60.9487 7.18 60.6727 6.896 60.3207 6.696C59.9687 6.488 59.5687 6.384 59.1207 6.384C58.6727 6.384 58.2727 6.488 57.9207 6.696C57.5687 6.896 57.2887 7.18 57.0807 7.548C56.8727 7.916 56.7687 8.348 56.7687 8.844C56.7687 9.332 56.8727 9.764 57.0807 10.14C57.2887 10.508 57.5687 10.796 57.9207 11.004C58.2727 11.204 58.6687 11.304 59.1087 11.304ZM68.9656 12L66.3736 8.88L67.0816 8.46L69.9736 12H68.9656ZM64.3456 12V5.7H65.1976V12H64.3456ZM64.9336 9.192V8.46H66.9616V9.192H64.9336ZM67.1536 8.94L66.3616 8.82L68.8696 5.7H69.7936L67.1536 8.94ZM73.8876 12.06C73.2796 12.06 72.7316 11.924 72.2436 11.652C71.7636 11.372 71.3836 10.992 71.1036 10.512C70.8236 10.024 70.6836 9.468 70.6836 8.844C70.6836 8.212 70.8236 7.656 71.1036 7.176C71.3836 6.696 71.7636 6.32 72.2436 6.048C72.7236 5.776 73.2716 5.64 73.8876 5.64C74.5116 5.64 75.0636 5.776 75.5436 6.048C76.0316 6.32 76.4116 6.696 76.6836 7.176C76.9636 7.656 77.1036 8.212 77.1036 8.844C77.1036 9.468 76.9636 10.024 76.6836 10.512C76.4116 10.992 76.0316 11.372 75.5436 11.652C75.0556 11.924 74.5036 12.06 73.8876 12.06ZM73.8876 11.304C74.3436 11.304 74.7476 11.204 75.0996 11.004C75.4516 10.796 75.7276 10.508 75.9276 10.14C76.1356 9.764 76.2396 9.332 76.2396 8.844C76.2396 8.348 76.1356 7.916 75.9276 7.548C75.7276 7.18 75.4516 6.896 75.0996 6.696C74.7476 6.488 74.3476 6.384 73.8996 6.384C73.4516 6.384 73.0516 6.488 72.6996 6.696C72.3476 6.896 72.0676 7.18 71.8596 7.548C71.6516 7.916 71.5476 8.348 71.5476 8.844C71.5476 9.332 71.6516 9.764 71.8596 10.14C72.0676 10.508 72.3476 10.796 72.6996 11.004C73.0516 11.204 73.4476 11.304 73.8876 11.304ZM79.1245 12V5.7H81.9085C82.6205 5.7 83.1805 5.836 83.5885 6.108C84.0045 6.38 84.2125 6.78 84.2125 7.308C84.2125 7.82 84.0165 8.216 83.6245 8.496C83.2325 8.768 82.7165 8.904 82.0765 8.904L82.2445 8.652C82.9965 8.652 83.5485 8.792 83.9005 9.072C84.2525 9.352 84.4285 9.756 84.4285 10.284C84.4285 10.828 84.2285 11.252 83.8285 11.556C83.4365 11.852 82.8245 12 81.9925 12H79.1245ZM79.9525 11.328H81.9565C82.4925 11.328 82.8965 11.244 83.1685 11.076C83.4485 10.9 83.5885 10.62 83.5885 10.236C83.5885 9.852 83.4645 9.572 83.2165 9.396C82.9685 9.22 82.5765 9.132 82.0405 9.132H79.9525V11.328ZM79.9525 8.496H81.8485C82.3365 8.496 82.7085 8.404 82.9645 8.22C83.2285 8.036 83.3605 7.768 83.3605 7.416C83.3605 7.064 83.2285 6.8 82.9645 6.624C82.7085 6.448 82.3365 6.36 81.8485 6.36H79.9525V8.496Z" fill="#737373"/>
</g>
<defs>
<clipPath id="clip0_30_5667">
<rect width="86" height="16" fill="white"/>
</clipPath>
</defs>
</svg>
