<svg width="75" height="30" viewBox="0 0 75 30" fill="none" xmlns="http://www.w3.org/2000/svg">
<path d="M0.799766 22.3999C0.565099 22.3999 0.373099 22.3252 0.223766 22.1759C0.0744324 22.0266 -0.000234365 21.8346 -0.000234365 21.5999V0.799902C-0.000234365 0.565235 0.0744324 0.373234 0.223766 0.223902C0.373099 0.0745678 0.565099 -9.91821e-05 0.799766 -9.91821e-05H5.02377C5.2371 -9.91821e-05 5.41843 0.0745678 5.56777 0.223902C5.73843 0.373234 5.82377 0.565235 5.82377 0.799902V17.5679H15.4878C15.7224 17.5679 15.9144 17.6532 16.0638 17.8239C16.2344 17.9732 16.3198 18.1652 16.3198 18.3999V21.5999C16.3198 21.8346 16.2344 22.0266 16.0638 22.1759C15.9144 22.3252 15.7224 22.3999 15.4878 22.3999H0.799766ZM26.4573 22.7199C24.6653 22.7199 23.1506 22.4319 21.9133 21.8559C20.6973 21.2799 19.7586 20.4586 19.0973 19.3919C18.4573 18.3039 18.0946 17.0132 18.0093 15.5199C17.9879 15.0932 17.9773 14.6132 17.9773 14.0799C17.9773 13.5252 17.9879 13.0452 18.0093 12.6399C18.0946 11.1252 18.4786 9.83457 19.1613 8.7679C19.8439 7.70124 20.7933 6.8799 22.0093 6.3039C23.2466 5.7279 24.7293 5.4399 26.4573 5.4399C28.2066 5.4399 29.6893 5.7279 30.9053 6.3039C32.1426 6.8799 33.1026 7.70124 33.7853 8.7679C34.4679 9.83457 34.8519 11.1252 34.9373 12.6399C34.9586 13.0452 34.9693 13.5252 34.9693 14.0799C34.9693 14.6132 34.9586 15.0932 34.9373 15.5199C34.8519 17.0132 34.4786 18.3039 33.8173 19.3919C33.1773 20.4586 32.2386 21.2799 31.0013 21.8559C29.7853 22.4319 28.2706 22.7199 26.4573 22.7199ZM26.4573 18.8159C27.4173 18.8159 28.1106 18.5279 28.5373 17.9519C28.9853 17.3759 29.2413 16.5119 29.3053 15.3599C29.3266 15.0399 29.3373 14.6132 29.3373 14.0799C29.3373 13.5466 29.3266 13.1199 29.3053 12.7999C29.2413 11.6692 28.9853 10.8159 28.5373 10.2399C28.1106 9.64257 27.4173 9.3439 26.4573 9.3439C25.5186 9.3439 24.8253 9.64257 24.3773 10.2399C23.9293 10.8159 23.6839 11.6692 23.6413 12.7999C23.6199 13.1199 23.6093 13.5466 23.6093 14.0799C23.6093 14.6132 23.6199 15.0399 23.6413 15.3599C23.6839 16.5119 23.9293 17.3759 24.3773 17.9519C24.8253 18.5279 25.5186 18.8159 26.4573 18.8159ZM46.2765 29.4399C44.6338 29.4399 43.2685 29.2266 42.1805 28.7999C41.1138 28.3732 40.2605 27.8612 39.6205 27.2639C39.0018 26.6666 38.5538 26.0692 38.2765 25.4719C37.9992 24.8959 37.8498 24.4372 37.8285 24.0959C37.8072 23.8612 37.8818 23.6692 38.0525 23.5199C38.2232 23.3706 38.4258 23.2959 38.6605 23.2959H42.7245C42.9165 23.2959 43.0765 23.3386 43.2045 23.4239C43.3538 23.5306 43.4712 23.7012 43.5565 23.9359C43.6632 24.1706 43.8018 24.4159 43.9725 24.6719C44.1645 24.9279 44.4205 25.1306 44.7405 25.2799C45.0818 25.4506 45.5405 25.5359 46.1165 25.5359C46.7565 25.5359 47.2898 25.4292 47.7165 25.2159C48.1432 25.0239 48.4632 24.6932 48.6765 24.2239C48.8898 23.7759 48.9965 23.1679 48.9965 22.3999V20.2559C48.5058 20.7892 47.8765 21.2266 47.1085 21.5679C46.3405 21.8879 45.4125 22.0479 44.3245 22.0479C43.2365 22.0479 42.2765 21.8879 41.4445 21.5679C40.6125 21.2479 39.9192 20.7679 39.3645 20.1279C38.8098 19.4879 38.3725 18.7092 38.0525 17.7919C37.7538 16.8746 37.5725 15.8186 37.5085 14.6239C37.4872 14.0692 37.4872 13.5146 37.5085 12.9599C37.5725 11.8079 37.7538 10.7732 38.0525 9.8559C38.3512 8.93857 38.7778 8.14923 39.3325 7.4879C39.9085 6.82657 40.6125 6.32524 41.4445 5.9839C42.2765 5.62123 43.2365 5.4399 44.3245 5.4399C45.4765 5.4399 46.4578 5.6639 47.2685 6.1119C48.1005 6.53857 48.7832 7.08257 49.3165 7.7439V6.5599C49.3165 6.34657 49.3912 6.16524 49.5405 6.0159C49.6898 5.84523 49.8818 5.7599 50.1165 5.7599H53.7965C54.0312 5.7599 54.2232 5.84523 54.3725 6.0159C54.5432 6.16524 54.6285 6.34657 54.6285 6.5599V21.9519C54.6285 23.5732 54.2979 24.9386 53.6365 26.0479C52.9752 27.1572 52.0258 27.9999 50.7885 28.5759C49.5512 29.1519 48.0472 29.4399 46.2765 29.4399ZM46.0525 17.8879C46.7352 17.8879 47.2898 17.7386 47.7165 17.4399C48.1432 17.1412 48.4525 16.7572 48.6445 16.2879C48.8578 15.8186 48.9752 15.3172 48.9965 14.7839C49.0178 14.5492 49.0285 14.2186 49.0285 13.7919C49.0285 13.3652 49.0178 13.0452 48.9965 12.8319C48.9752 12.2772 48.8578 11.7652 48.6445 11.2959C48.4525 10.8266 48.1432 10.4532 47.7165 10.1759C47.2898 9.87723 46.7352 9.7279 46.0525 9.7279C45.3485 9.7279 44.7832 9.87723 44.3565 10.1759C43.9512 10.4746 43.6525 10.8799 43.4605 11.3919C43.2898 11.9039 43.1832 12.4692 43.1405 13.0879C43.1192 13.5572 43.1192 14.0372 43.1405 14.5279C43.1832 15.1466 43.2898 15.7119 43.4605 16.2239C43.6525 16.7359 43.9512 17.1412 44.3565 17.4399C44.7832 17.7386 45.3485 17.8879 46.0525 17.8879ZM66.2698 22.7199C64.4778 22.7199 62.9631 22.4319 61.7258 21.8559C60.5098 21.2799 59.5711 20.4586 58.9098 19.3919C58.2698 18.3039 57.9071 17.0132 57.8218 15.5199C57.8004 15.0932 57.7898 14.6132 57.7898 14.0799C57.7898 13.5252 57.8004 13.0452 57.8218 12.6399C57.9071 11.1252 58.2911 9.83457 58.9738 8.7679C59.6564 7.70124 60.6058 6.8799 61.8218 6.3039C63.0591 5.7279 64.5418 5.4399 66.2698 5.4399C68.0191 5.4399 69.5018 5.7279 70.7178 6.3039C71.9551 6.8799 72.9151 7.70124 73.5978 8.7679C74.2804 9.83457 74.6644 11.1252 74.7498 12.6399C74.7711 13.0452 74.7818 13.5252 74.7818 14.0799C74.7818 14.6132 74.7711 15.0932 74.7498 15.5199C74.6644 17.0132 74.2911 18.3039 73.6298 19.3919C72.9898 20.4586 72.0511 21.2799 70.8138 21.8559C69.5978 22.4319 68.0831 22.7199 66.2698 22.7199ZM66.2698 18.8159C67.2298 18.8159 67.9231 18.5279 68.3498 17.9519C68.7978 17.3759 69.0538 16.5119 69.1178 15.3599C69.1391 15.0399 69.1498 14.6132 69.1498 14.0799C69.1498 13.5466 69.1391 13.1199 69.1178 12.7999C69.0538 11.6692 68.7978 10.8159 68.3498 10.2399C67.9231 9.64257 67.2298 9.3439 66.2698 9.3439C65.3311 9.3439 64.6378 9.64257 64.1898 10.2399C63.7418 10.8159 63.4964 11.6692 63.4538 12.7999C63.4324 13.1199 63.4218 13.5466 63.4218 14.0799C63.4218 14.6132 63.4324 15.0399 63.4538 15.3599C63.4964 16.5119 63.7418 17.3759 64.1898 17.9519C64.6378 18.5279 65.3311 18.8159 66.2698 18.8159Z" fill="#0B132A"/>
</svg>
